<?xml version="1.0" standalone="no"?>
<!DOCTYPE svg PUBLIC "-//W3C//DTD SVG 20010904//EN"
 "http://www.w3.org/TR/2001/REC-SVG-20010904/DTD/svg10.dtd">
<svg version="1.0" xmlns="http://www.w3.org/2000/svg"
 width="500.000000pt" height="500.000000pt" viewBox="0 0 500.000000 500.000000"
 preserveAspectRatio="xMidYMid meet">

<g transform="translate(0.000000,500.000000) scale(0.100000,-0.100000)"
fill="#000000" stroke="none">
<path d="M1643 4182 c-67 -24 -117 -63 -147 -115 -38 -64 -298 -1045 -298
-1119 1 -113 76 -218 180 -252 91 -30 1658 -444 1704 -451 75 -11 152 18 213
80 28 27 56 66 62 85 22 63 274 1013 280 1056 13 95 -57 219 -150 263 -51 24
-1671 457 -1742 466 -35 4 -65 0 -102 -13z m952 -246 c462 -123 852 -229 866
-234 72 -28 139 -128 139 -207 0 -48 -264 -1044 -291 -1097 -33 -64 -121 -117
-199 -118 -45 0 -1706 442 -1757 468 -46 24 -64 43 -93 99 -42 82 -42 82 105
634 75 283 143 528 151 544 39 81 119 134 204 135 20 0 414 -101 875 -224z"/>
<path d="M3058 1837 c-50 -14 -63 -22 -116 -71 -118 -108 -120 -349 -4 -469
50 -53 101 -77 175 -84 98 -9 169 16 233 81 66 68 89 130 88 246 -1 132 -48
222 -144 274 -63 34 -158 43 -232 23z m198 -65 c81 -41 118 -117 119 -242 0
-74 -4 -93 -28 -143 -82 -166 -321 -168 -401 -4 -59 119 -41 263 44 348 28 28
62 50 86 57 53 15 133 8 180 -16z"/>
<path d="M4245 1841 c-82 -20 -146 -72 -186 -151 -32 -63 -39 -215 -14 -291
26 -77 103 -152 181 -175 114 -33 249 3 310 83 53 70 69 120 69 228 0 90 -3
106 -28 157 -60 123 -194 182 -332 149z m142 -53 c99 -24 163 -126 163 -258 0
-152 -78 -251 -209 -267 -163 -19 -284 136 -252 320 18 102 72 172 157 202 48
17 82 18 141 3z"/>
<path d="M360 1815 c0 -25 1 -25 90 -25 l90 0 0 -285 0 -285 30 0 30 0 0 285
0 285 90 0 c89 0 90 0 90 25 l0 25 -210 0 -210 0 0 -25z"/>
<path d="M880 1530 l0 -310 160 0 160 0 0 25 0 25 -130 0 -130 0 0 120 0 120
115 0 115 0 0 25 0 25 -115 0 -115 0 0 115 0 115 125 0 125 0 0 25 0 25 -155
0 -155 0 0 -310z"/>
<path d="M1330 1530 l0 -310 30 0 29 0 3 151 3 152 133 -152 c130 -148 133
-151 174 -151 l40 0 -88 98 c-49 53 -112 123 -141 155 -29 32 -53 63 -53 68 0
8 107 130 234 267 l30 32 -37 0 c-34 0 -44 -8 -164 -143 l-128 -144 -3 144 -3
143 -29 0 -30 0 0 -310z"/>
<path d="M1822 1603 c3 -226 4 -240 26 -285 28 -57 63 -84 129 -99 103 -24
201 8 250 79 34 52 43 119 43 337 l0 205 -30 0 -30 0 0 -216 c0 -137 -4 -231
-12 -256 -42 -141 -259 -141 -307 1 -7 21 -11 116 -11 252 l0 219 -31 0 -31 0
4 -237z"/>
<path d="M2370 1815 c0 -24 2 -24 88 -27 l87 -3 3 -282 2 -283 25 0 25 0 2
283 3 282 88 3 c85 3 87 3 87 27 l0 25 -205 0 -205 0 0 -25z"/>
<path d="M3570 1530 l0 -310 25 0 25 0 0 150 c0 83 3 150 8 149 4 0 65 -68
136 -150 125 -146 129 -149 168 -149 l40 0 -60 68 c-33 37 -97 108 -141 157
-45 50 -81 93 -81 96 0 3 51 62 113 131 61 68 121 134 131 146 l19 22 -36 0
c-33 0 -43 -9 -159 -140 -67 -77 -126 -140 -130 -140 -5 0 -8 63 -8 140 l0
140 -25 0 -25 0 0 -310z"/>
</g>
</svg>
